<svg xmlns="http://www.w3.org/2000/svg" width="35" height="35" viewBox="0 0 35 35">
  <path id="bandwidth_watch" data-name="bandwidth watch" d="M4.3,15.754l26.545.011L30.832,22.4H33.37A1.63,1.63,0,0,1,35,24.034V44.9a1.63,1.63,0,0,1-1.63,1.619H22.323v2.045h1.52v2.188h-12.7V48.566h1.585V46.521H1.652A1.63,1.63,0,0,1,0,44.9V24.033A1.63,1.63,0,0,1,1.619,22.4H4.287ZM20.136,46.521H14.918v2.045h5.218V46.521ZM2.187,42.1v2.181H32.812V42.151L2.187,42.1ZM32.812,24.591H30.828L30.8,39.96l2.011,0ZM6.475,17.941,6.444,39.917l22.17.039.031-22ZM4.283,24.591h-2.1V39.91l2.069,0,.027-15.323Zm9.695-4.91,6.65,12.2,1.6-4H26.25V30.06H23.712l-2.778,6.945L14.459,25.138,12.819,30.06H8.75V27.873h2.494l2.734-8.192Z" transform="translate(0 -15.754)" fill="#f5f5f5"/>
</svg>
