<svg xmlns="http://www.w3.org/2000/svg" width="20" height="20" viewBox="0 0 20 20"><path d="M112.792,89.207a.7.7,0,0,1,.013.984l-.013.013-2.6,2.573a5,5,0,0,1-.854,6.458l-2.216,2.184a.72.72,0,0,1-1,.006l-1.092-1.051-.432.427a.713.713,0,0,1-.171.125l1.164,1.12a.7.7,0,0,1,.006,1l-2.288,2.255a5.166,5.166,0,0,1-6.461.9l-2.623,2.592a.72.72,0,0,1-1.009,0,.7.7,0,0,1-.013-.984l.013-.013,2.618-2.586a5.009,5.009,0,0,1,.879-6.424L98.922,96.6a.72.72,0,0,1,1-.006l1.016.978a.707.707,0,0,1,.088-.112l.013-.013.466-.461-1.053-1.013a.7.7,0,0,1-.014-1l.008-.008,2.288-2.255a5.173,5.173,0,0,1,6.426-.921l2.62-2.589A.72.72,0,0,1,112.792,89.207Zm-13.36,8.885-1.716,1.692-.045.045a3.5,3.5,0,0,0-.386,4.906c1.247,1.232,3.493,1.073,5.011-.427l1.776-1.751Zm3.1-.119-.48.474a.716.716,0,0,1-.111.09l1.51,1.453a.7.7,0,0,1,.122-.172l.013-.013L104,99.39Zm6.226-4.686c-1.247-1.232-3.493-1.073-5.011.427l-1.776,1.751,4.64,4.465,1.717-1.692.044-.045A3.5,3.5,0,0,0,108.757,93.287Z" transform="translate(-93.001 -89)" fill="#364f6b"/></svg>