<svg xmlns="http://www.w3.org/2000/svg" width="20" height="20" viewBox="0 0 25 25"><path d="M129.035,109.3H108.641v-1.645a.987.987,0,0,0-1.974,0V130.68a.987.987,0,1,0,1.974,0v-3.618h3.289v1.316a1.32,1.32,0,0,0,1.316,1.316H126.4a1.32,1.32,0,0,0,1.316-1.316v-1.316h1.316a2.639,2.639,0,0,0,2.632-2.632v-12.5a2.639,2.639,0,0,0-2.632-2.632ZM115.877,126.4a.987.987,0,1,1-1.974,0v-1.316a.987.987,0,1,1,1.974,0Zm3.289,0a.987.987,0,0,1-1.974,0v-1.316a.987.987,0,0,1,1.974,0Zm0-5.263a1.012,1.012,0,0,1-.987-.987,1.114,1.114,0,0,1,.592-.921.23.23,0,0,0,.132-.066h.395c.066,0,.132,0,.132.066a1.032,1.032,0,0,1,.592.921A.833.833,0,0,1,119.167,121.141Zm3.289,5.263a.987.987,0,1,1-1.974,0v-1.316a.987.987,0,1,1,1.974,0Zm-.987-7.566a1.38,1.38,0,0,1-.724-.263,2.337,2.337,0,0,0-1.645-.658,2.242,2.242,0,0,0-1.645.724.9.9,0,0,1-.724.263,1.012,1.012,0,0,1-.987-.987,1.38,1.38,0,0,1,.263-.724,4.288,4.288,0,0,1,6.053,0,.845.845,0,0,1,.263.658A.833.833,0,0,1,121.47,118.838Zm1.645-2.632a5.559,5.559,0,0,0-7.895,0,1.056,1.056,0,0,1-.724.329,1.012,1.012,0,0,1-.987-.987,1.056,1.056,0,0,1,.329-.724,7.454,7.454,0,0,1,5.329-2.237,7.3,7.3,0,0,1,5.2,2.105l.066.066a1.169,1.169,0,0,1,.263.658,1.012,1.012,0,0,1-.987.987c-.2.066-.395-.066-.592-.2Zm2.632,10.2a.987.987,0,0,1-1.974,0v-1.316a.987.987,0,0,1,1.974,0Z" transform="translate(-106.667 -106.667)" fill="#364f6b"/></svg>