<svg xmlns="http://www.w3.org/2000/svg" width="24" height="20" viewBox="0 0 24 24"><path d="M72.258,82.262A10.554,10.554,0,0,0,75.3,85.016V81.595A10.448,10.448,0,0,0,72.258,82.262Zm-1.382.649a10.524,10.524,0,0,0-1.612,1.115h-.034a10.455,10.455,0,0,0,5.511,2.4A12.061,12.061,0,0,1,70.876,82.91Zm-.662-6.16a10.436,10.436,0,0,0,1.224,4.223,11.939,11.939,0,0,1,3.866-.882V76.75Zm-1.5,0H65.526a10.458,10.458,0,0,0,2.639,6.241,12.032,12.032,0,0,1,1.923-1.359,11.928,11.928,0,0,1-1.378-4.882ZM80.653,81a10.437,10.437,0,0,0,1.24-4.253H76.777V80.1A11.935,11.935,0,0,1,80.653,81ZM82,81.67a12.033,12.033,0,0,1,1.846,1.311,10.457,10.457,0,0,0,2.63-6.23H83.4A11.928,11.928,0,0,1,82,81.67Zm-5.221,3.362a10.555,10.555,0,0,0,3.053-2.744,10.443,10.443,0,0,0-3.053-.689Zm.619,1.376a10.456,10.456,0,0,0,5.375-2.382h-.013a10.526,10.526,0,0,0-1.551-1.081A12.06,12.06,0,0,1,77.4,86.408ZM71.441,71.021a10.437,10.437,0,0,0-1.227,4.229H75.3V71.9a11.939,11.939,0,0,1-3.863-.877Zm-1.35-.657a12.031,12.031,0,0,1-1.924-1.356,10.458,10.458,0,0,0-2.64,6.242h3.184a11.929,11.929,0,0,1,1.38-4.886Zm5.213-3.38a10.554,10.554,0,0,0-3.042,2.75A10.449,10.449,0,0,0,75.3,70.4Zm-.563-1.409a10.454,10.454,0,0,0-5.5,2.39h.014a10.524,10.524,0,0,0,1.623,1.122,12.06,12.06,0,0,1,3.862-3.511ZM79.822,69.7a10.554,10.554,0,0,0-3.046-2.735v3.423A10.445,10.445,0,0,0,79.822,69.7Zm1.377-.658a10.525,10.525,0,0,0,1.55-1.08h.01A10.455,10.455,0,0,0,77.4,65.592,12.061,12.061,0,0,1,81.2,69.044Zm.694,6.206a10.437,10.437,0,0,0-1.245-4.264,11.935,11.935,0,0,1-3.871.908V75.25Zm1.5,0h3.077a10.458,10.458,0,0,0-2.639-6.24,12.034,12.034,0,0,1-1.843,1.309,11.93,11.93,0,0,1,1.4,4.931ZM76,88A12,12,0,1,1,88,76,12,12,0,0,1,76,88Z" transform="translate(-64 -64)" fill="#232632"/></svg>