<svg xmlns="http://www.w3.org/2000/svg" width="20" height="15" viewBox="0 0 20 15"><path d="M83.167,228.374H79.834a.891.891,0,0,1-.833-.939V226.5H77.888v1.876H76.223V226.5H75.111v1.876H72.888V226.5h-1.11v1.876H70.111V226.5H69l-.006.935a1,1,0,0,1-.243.664.789.789,0,0,1-.589.275H64.833a.789.789,0,0,1-.589-.275,1,1,0,0,1-.243-.664V214.315a.89.89,0,0,1,.833-.939H83.166a.789.789,0,0,1,.59.274,1,1,0,0,1,.244.664v13.121a1,1,0,0,1-.243.664A.789.789,0,0,1,83.167,228.374Zm-.834-4.454h-.874a.945.945,0,0,1,0-1.877h.874v-6.79H65.667v6.79h.847a.945.945,0,0,1,0,1.877h-.847V226.5h1.661l.006-1.246c0-.519.1-.625.556-.625H80.113c.46,0,.556.106.556.625V226.5h1.666v-2.575ZM79,216.5h1.667v4.375H79Zm-3.889,0h1.667v4.375H75.111Zm-3.889,0H72.89v4.375H71.223Zm-3.89,0H69v4.375l-1.64,0Z" transform="translate(-64 -213.376)" fill="#364f6b"/></svg>