<svg xmlns="http://www.w3.org/2000/svg" width="35" height="35" viewBox="0 0 35 35">
  <path id="logout" d="M168.179,155.093a.931.931,0,0,0-.933.92v5.7c0,1.29-.065,1.121-1.357,1.121H139.814c-1.292,0-1.778.169-1.778-1.121v-28.63c0-1.29.486-1.26,1.778-1.26h26.075c1.292,0,1.357-.03,1.357,1.26v5.563h.013a.933.933,0,0,0,1.841,0h.011v-6.485a2.335,2.335,0,0,0-2.339-2.332H138.509a2.335,2.335,0,0,0-2.338,2.332V162.5a2.336,2.336,0,0,0,2.338,2.334h28.264a2.336,2.336,0,0,0,2.339-2.334v-6.483a.931.931,0,0,0-.933-.92Zm2.891-8.174a1.03,1.03,0,0,0-.186-.26.992.992,0,0,0-.145-.119l-9.048-9.024a.935.935,0,0,0-1.32,1.316l7.56,7.541H149.076a.931.931,0,1,0,0,1.861h18.909l-7.614,7.593a.935.935,0,0,0,1.32,1.317l9.048-9.025a.883.883,0,0,0,.145-.119,1,1,0,0,0,.186-.26.827.827,0,0,0,.1-.377V147.3a.842.842,0,0,0-.1-.378Z" transform="translate(-136.17 -129.831)" fill="#f5f5f5"/>
</svg>
