<svg xmlns="http://www.w3.org/2000/svg" width="35" height="35" viewBox="0 0 35 35">
  <path id="status_icon" data-name="status icon" d="M104.12,132.187c0-2.755-2.246-4.187-5-4.187H74.117a4.992,4.992,0,0,0-5,5V158a5.005,5.005,0,0,0,5,5H99.123a4.992,4.992,0,0,0,5-5Zm-31.763-.475a2.421,2.421,0,0,1,1.78-.724H99.143c1.376,0,2.509.654,2.509,2.031v11.254H99.669l-2.145-2.148a1.237,1.237,0,0,0-1.76,0,1.2,1.2,0,0,0-.3.49l-1.538,4.646-3.662-7.308a1.262,1.262,0,0,0-1.679-.56,1.28,1.28,0,0,0-.607.654l-3.642,9.106-4.006-14.009a1.259,1.259,0,0,0-1.538-.864,1.157,1.157,0,0,0-.769.654l-4.653,9.316h-1.72V133.464A2.308,2.308,0,0,1,72.357,131.712Zm28.668,27.9a3.047,3.047,0,0,1-1.9.444H74.117a2.551,2.551,0,0,1-1.78-.724,2.418,2.418,0,0,1-.728-1.775V146.772h2.509a1.214,1.214,0,0,0,1.113-.7l3.561-7.121,4.127,14.43a1.247,1.247,0,0,0,1.133.911h.061a1.222,1.222,0,0,0,1.153-.794l3.986-9.947,3.763,7.518a1.262,1.262,0,0,0,1.679.56,1.162,1.162,0,0,0,.627-.724l1.861-5.58,1.072,1.074a1.269,1.269,0,0,0,.89.374h2.488V157.56a4.886,4.886,0,0,1-.566,2.031Z" transform="translate(-69.12 -128)" fill="#f5f5f5"/>
</svg>
