<svg xmlns="http://www.w3.org/2000/svg" width="20" height="20" viewBox="0 0 20 20"><path d="M21.538,4.638H13.3A1.168,1.168,0,0,0,12.126,5.8v8.116A1.168,1.168,0,0,0,13.3,15.072h8.235a1.168,1.168,0,0,0,1.176-1.159V5.8a1.168,1.168,0,0,0-1.176-1.159Zm0,9.275H13.3V5.8h8.235Zm5.294-4.638a.58.58,0,1,0,0-1.159H24.773V6.377h2.059a.58.58,0,1,0,0-1.159H24.773V4.236a1.517,1.517,0,0,0-.44-1.169,1.564,1.564,0,0,0-1.177-.458H22.42V.58a.588.588,0,0,0-1.176,0V2.609H19.479V.58A.588.588,0,0,0,18.3.58V2.609H16.538V.58a.588.588,0,0,0-1.176,0V2.609H13.6V.58a.588.588,0,0,0-1.176,0V2.609h-.735A1.8,1.8,0,0,0,9.773,4.236v.982H8.008a.58.58,0,1,0,0,1.159H9.773V8.116H8.008a.58.58,0,1,0,0,1.159H9.773v1.739H8.008a.58.58,0,1,0,0,1.159H9.773v1.739H8.008a.58.58,0,1,0,0,1.159H9.773v.468a1.985,1.985,0,0,0,1.912,1.851h.735V19.42a.588.588,0,0,0,1.176,0V17.391h1.765V19.42a.588.588,0,0,0,1.176,0V17.391H18.3V19.42a.588.588,0,0,0,1.176,0V17.391h1.765V19.42a.588.588,0,0,0,1.176,0V17.391h.735a1.733,1.733,0,0,0,1.618-1.851v-.468h2.059a.58.58,0,1,0,0-1.159H24.773V12.174h2.059a.58.58,0,1,0,0-1.159H24.773V9.275h2.059ZM23.6,15.652a.584.584,0,0,1-.588.58H11.538a.584.584,0,0,1-.588-.58V4.348a.584.584,0,0,1,.588-.58H23.008a.584.584,0,0,1,.588.58v11.3Z" transform="translate(-7.42)" fill="#364f6b"/></svg>