<svg xmlns="http://www.w3.org/2000/svg" width="20" height="20" viewBox="0 0 20 20"><path d="M82.883,143.787V142.61H93.5v1.177Zm5.925-8.234H93.03v1.177H88.808ZM85.055,133.2H87.87v5.883H85.055Zm.938,4.707h.938v-2.353h-.938Zm0-2.942h.938v-.588h-.938Zm-12.493.588H84.117v1.177H73.5Zm4.692,8.234H73.5V142.61h4.692Zm3.753-3.53v5.883H79.13v-5.883Zm-1.877,4.707h.938V142.61h-.938Zm0-2.942h.938v-.588h-.938Zm4.048,8.825H73.5V149.67H84.117ZM87.87,153.2H85.055v-5.883H87.87Zm-.938-4.707h-.938v.588h.938Zm0,1.177h-.938v2.353h.938Zm6.1,1.177H88.34V149.67h4.692v1.177Z" transform="translate(-73.5 -133.2)" fill="#364f6b"/></svg>