<svg xmlns="http://www.w3.org/2000/svg" width="20" height="20" viewBox="0 0 27.571 21.768"><path d="M82.324,97.886H80.385V93.654H70.045V90.873H78.59a.536.536,0,0,0,.574-.484V82.414A.447.447,0,0,0,79,82.066a.636.636,0,0,0-.41-.146H59.061a.537.537,0,0,0-.574.484v7.975a.447.447,0,0,0,.164.348.636.636,0,0,0,.41.146h8.544v2.781H57.266v4.232H55.326a.268.268,0,0,0-.286.242v5.319a.268.268,0,0,0,.286.242h6.319a.268.268,0,0,0,.288-.242V98.127a.268.268,0,0,0-.288-.242H59.706V95.709h7.9v2.176H65.666a.268.268,0,0,0-.286.242v5.319a.268.268,0,0,0,.286.242h6.319a.268.268,0,0,0,.286-.242V98.127a.268.268,0,0,0-.286-.242H70.045V95.709h7.9v2.176H76.006a.268.268,0,0,0-.288.242v5.319a.268.268,0,0,0,.288.242h6.319a.268.268,0,0,0,.286-.242V98.127a.268.268,0,0,0-.286-.242Zm-22.689,3.787a.091.091,0,0,1-.1.082H57.431a.091.091,0,0,1-.1-.082V99.9a.091.091,0,0,1,.1-.082h2.106a.091.091,0,0,1,.1.082Zm10.338,0a.091.091,0,0,1-.1.082H67.769a.091.091,0,0,1-.1-.082V99.9a.075.075,0,0,1,.028-.058.106.106,0,0,1,.069-.024h2.108a.106.106,0,0,1,.069.024.075.075,0,0,1,.028.058ZM60.783,88.938V83.86H76.866v5.078Zm19.529,12.734a.091.091,0,0,1-.1.082H78.109a.091.091,0,0,1-.1-.082V99.9a.075.075,0,0,1,.028-.058.106.106,0,0,1,.069-.024h2.108a.106.106,0,0,1,.069.024.075.075,0,0,1,.028.058ZM64.805,85.19a1.467,1.467,0,0,0-1.334.744,1.072,1.072,0,0,0,.309,1.319,1.645,1.645,0,0,0,1.57.264,1.227,1.227,0,0,0,.89-1.117A1.337,1.337,0,0,0,64.805,85.19Z" transform="translate(-55.04 -81.92)" fill="#364f6b"/></svg>