<svg xmlns="http://www.w3.org/2000/svg" width="20" height="20" viewBox="0 0 20 20"><path d="M260.1,154.292v-6.818c0-.682-.638-1.136-1.6-1.136s-1.6.455-1.6,1.136v6.818h-2.873c-.638,0-1.117.568-.638,1.023l4.469,3.182a1,1,0,0,0,1.117,0l4.469-3.182c.479-.341.16-1.023-.638-1.023Zm-11.812-15.455-4.31,3.068c-.638.455-.16,1.023.479,1.023h2.873v6.818c0,.682.638,1.136,1.6,1.136s1.6-.455,1.6-1.136v-6.818h2.873c.638,0,1.117-.568.638-.909l-4.629-3.182C249.243,138.61,248.6,138.61,248.285,138.837Z" transform="translate(-243.674 -138.667)" fill="#364f6b"/></svg>