<svg xmlns="http://www.w3.org/2000/svg" width="35" height="35" viewBox="0 0 35 35">
  <path id="network" d="M81.5,64A17.5,17.5,0,1,0,99,81.5,17.5,17.5,0,0,0,81.5,64ZM66.552,82.75h4.974a28.283,28.283,0,0,0,.948,6.289H68.53a14.907,14.907,0,0,1-1.978-6.289Zm16.2-11.211V66.708c1.723.578,3.246,2.33,4.358,4.832Zm5.258,2.5a26.637,26.637,0,0,1,.966,6.211H82.75V74.039ZM80.25,66.708v4.832H75.892C77,69.038,78.527,67.286,80.25,66.708Zm0,7.332V80.25H74.026a26.639,26.639,0,0,1,.966-6.211ZM71.525,80.25H66.552a14.907,14.907,0,0,1,1.933-6.211h3.968A28.327,28.327,0,0,0,71.525,80.25Zm2.5,2.5H80.25v6.289H75.015A26.577,26.577,0,0,1,74.026,82.75Zm6.224,8.789v4.753c-1.7-.572-3.214-2.294-4.323-4.753Zm2.5,4.753V91.539h4.323C85.964,94,84.455,95.72,82.75,96.292Zm0-7.253V82.75h6.224a26.577,26.577,0,0,1-.989,6.289Zm8.725-6.289h4.974a14.907,14.907,0,0,1-1.978,6.289H90.527A28.283,28.283,0,0,0,91.475,82.75Zm0-2.5a28.323,28.323,0,0,0-.927-6.211h3.968a14.907,14.907,0,0,1,1.933,6.211Zm1.241-8.711H89.723a17.511,17.511,0,0,0-1.95-3.668A15.046,15.046,0,0,1,92.715,71.539ZM75.227,67.871a17.509,17.509,0,0,0-1.95,3.668H70.285A15.046,15.046,0,0,1,75.227,67.871ZM70.355,91.539h2.953a17.444,17.444,0,0,0,1.918,3.59,15.044,15.044,0,0,1-4.872-3.59Zm17.418,3.59a17.445,17.445,0,0,0,1.918-3.59h2.953A15.044,15.044,0,0,1,87.773,95.129Z" transform="translate(-64 -64)" fill="#f5f5f5"/>
</svg>
