<svg xmlns="http://www.w3.org/2000/svg" width="35" height="35" viewBox="0 0 35 35">
  <path id="service_icon" data-name="service icon" d="M1.67,15.272A1.68,1.68,0,0,1,0,13.6V1.67A1.631,1.631,0,0,1,1.67,0H13.682a1.68,1.68,0,0,1,1.67,1.67V13.681a1.68,1.68,0,0,1-1.67,1.67H1.67ZM1.352,13.92H13.92V1.352H1.352V13.92Zm19.966,1.352a1.68,1.68,0,0,1-1.67-1.67V1.67A1.68,1.68,0,0,1,21.318,0H33.33A1.631,1.631,0,0,1,35,1.67V13.681a1.68,1.68,0,0,1-1.67,1.67H21.318ZM21.08,13.92H33.648V1.352H21.08V13.92ZM1.67,35A1.631,1.631,0,0,1,0,33.329V21.318a1.68,1.68,0,0,1,1.67-1.67H13.682a1.68,1.68,0,0,1,1.67,1.67V33.329A1.68,1.68,0,0,1,13.682,35H1.67Zm-.318-1.352H13.92V21.079H1.352V33.647ZM21.318,35a1.68,1.68,0,0,1-1.67-1.67V21.318a1.68,1.68,0,0,1,1.67-1.67H33.33A1.68,1.68,0,0,1,35,21.318V33.329A1.68,1.68,0,0,1,33.33,35H21.318Zm-.239-1.352H33.648V21.079H21.08V33.647Z" transform="translate(0 0)" fill="#f5f5f5"/>
</svg>
