<svg xmlns="http://www.w3.org/2000/svg" width="35" height="35" viewBox="0 0 35 35">
  <path id="storage" data-name="storage" d="M113.5,64C107,64,96,65.059,96,69.031V93.969C96,97.94,107,99,113.5,99S131,97.94,131,93.969V69.031C131,65.059,120,64,113.5,64ZM98.692,79.475c3.674,1.625,10.314,2.133,14.808,2.133s11.142-.509,14.814-2.137l0,5.827c-.5.937-5.856,2.6-14.818,2.6-8.922,0-14.267-1.646-14.808-2.585Zm14.808-.382c-8.922,0-14.267-1.646-14.808-2.585V71.93c3.674,1.624,10.314,2.132,14.808,2.132s11.137-.508,14.809-2.134l0,4.574C127.788,77.44,122.44,79.092,113.5,79.092Zm0-12.577c8.7,0,14.007,1.567,14.766,2.515-.759.948-6.063,2.515-14.766,2.515s-14.007-1.567-14.765-2.515C99.493,68.082,104.8,66.515,113.5,66.515Zm0,29.969c-8.984,0-14.347-1.67-14.808-2.515V88.278c3.674,1.625,10.314,2.133,14.808,2.133s11.15-.511,14.821-2.139l0,5.608C127.846,94.814,122.484,96.485,113.5,96.485Z" transform="translate(-96 -64)" fill="#f5f5f5"/>
</svg>
