<svg xmlns="http://www.w3.org/2000/svg" width="35" height="35" viewBox="0 0 35 35">
  <path id="system_icon" data-name="system icon" d="M84.995,97.488a5.013,5.013,0,1,1-4.81,5.009,4.919,4.919,0,0,1,4.81-5.009m0-2.226a7.241,7.241,0,1,0,6.948,7.235,7.1,7.1,0,0,0-6.948-7.235m17.178,11.653a19.094,19.094,0,0,0,0-8.343,1.069,1.069,0,0,0-1.285-.83,1.116,1.116,0,0,0-.8,1.338,16.778,16.778,0,0,1,0,7.326,1.116,1.116,0,0,0,.8,1.338,1.069,1.069,0,0,0,1.285-.83Zm-1.264.855c.068,0,.124,0,.176,0a1.114,1.114,0,0,0,.093-2.225c-.086,0-.172-.006-.269-.006a1.115,1.115,0,0,0,0,2.227Zm-3.492,6.7a4.444,4.444,0,0,1-.672-2.363,4.253,4.253,0,0,1,4.164-4.336,1.115,1.115,0,0,0,0-2.227,6.437,6.437,0,0,0-6.3,6.563,6.737,6.737,0,0,0,1.019,3.578,1.044,1.044,0,0,0,1.48.326,1.142,1.142,0,0,0,.313-1.541ZM90.179,120.2a17.328,17.328,0,0,0,7.083-4.317,1.146,1.146,0,0,0,.029-1.575,1.04,1.04,0,0,0-1.512-.031,15.207,15.207,0,0,1-6.215,3.789,1.122,1.122,0,0,0-.717,1.387,1.063,1.063,0,0,0,1.332.746Zm-8.814-.592a4.1,4.1,0,0,1,7.539,0,1.052,1.052,0,0,0,1.423.534,1.134,1.134,0,0,0,.512-1.482,6.2,6.2,0,0,0-11.41,0,1.134,1.134,0,0,0,.512,1.482,1.052,1.052,0,0,0,1.423-.534Zm-8.311-3.677a17.343,17.343,0,0,0,7.036,4.269,1.063,1.063,0,0,0,1.332-.746,1.122,1.122,0,0,0-.716-1.387,15.222,15.222,0,0,1-6.175-3.748,1.04,1.04,0,0,0-1.512.037,1.146,1.146,0,0,0,.035,1.574Zm-3.622-8.157a4.253,4.253,0,0,1,4.164,4.336,4.443,4.443,0,0,1-.694,2.4,1.142,1.142,0,0,0,.3,1.544,1.044,1.044,0,0,0,1.483-.311,6.736,6.736,0,0,0,1.052-3.632,6.437,6.437,0,0,0-6.3-6.563,1.115,1.115,0,0,0,0,2.227Zm-.235.006c.072,0,.15-.006.235-.006a1.115,1.115,0,0,0,0-2.227c-.123,0-.239,0-.353.009a1.1,1.1,0,0,0-1.009,1.173,1.086,1.086,0,0,0,1.127,1.051Zm-1.1-9.207a19.081,19.081,0,0,0,0,8.349,1.069,1.069,0,0,0,1.285.83,1.116,1.116,0,0,0,.8-1.338,16.764,16.764,0,0,1,0-7.333,1.116,1.116,0,0,0-.8-1.338,1.069,1.069,0,0,0-1.285.83Zm1.335-.852c-.085,0-.163,0-.235-.006a1.086,1.086,0,0,0-1.127,1.051,1.1,1.1,0,0,0,1.009,1.173c.113.006.23.009.353.009a1.115,1.115,0,0,0,0-2.227Zm3.47-6.735a4.444,4.444,0,0,1,.694,2.4,4.252,4.252,0,0,1-4.164,4.335,1.115,1.115,0,0,0,0,2.227,6.436,6.436,0,0,0,6.3-6.562,6.737,6.737,0,0,0-1.052-3.633,1.044,1.044,0,0,0-1.483-.311,1.142,1.142,0,0,0-.3,1.544Zm7.188-5.691a17.343,17.343,0,0,0-7.036,4.269,1.146,1.146,0,0,0-.035,1.574,1.04,1.04,0,0,0,1.512.037A15.222,15.222,0,0,1,80.7,87.423a1.122,1.122,0,0,0,.716-1.387,1.063,1.063,0,0,0-1.332-.746Zm8.815.592a4.1,4.1,0,0,1-7.539,0,1.052,1.052,0,0,0-1.423-.534,1.134,1.134,0,0,0-.512,1.482,6.2,6.2,0,0,0,11.41,0,1.134,1.134,0,0,0-.512-1.482,1.052,1.052,0,0,0-1.423.534Zm8.358,3.724a17.353,17.353,0,0,0-7.082-4.316,1.063,1.063,0,0,0-1.332.746,1.122,1.122,0,0,0,.716,1.387,15.23,15.23,0,0,1,6.216,3.789,1.04,1.04,0,0,0,1.512-.031,1.146,1.146,0,0,0-.03-1.575Zm3.647,8.11a4.252,4.252,0,0,1-4.164-4.335,4.445,4.445,0,0,1,.672-2.364,1.142,1.142,0,0,0-.313-1.541,1.044,1.044,0,0,0-1.48.326,6.738,6.738,0,0,0-1.019,3.58,6.436,6.436,0,0,0,6.3,6.562,1.115,1.115,0,0,0,0-2.227Zm.176,0c-.052,0-.108,0-.176,0a1.115,1.115,0,0,0,0,2.227c.1,0,.183,0,.269-.006a1.114,1.114,0,0,0-.093-2.225Z" transform="translate(-67.634 -85.243)" fill="#f5f5f5"/>
</svg>
