<svg xmlns="http://www.w3.org/2000/svg" width="19.185" height="14.164" viewBox="0 0 19.185 14.164">
  <path id="VPN" data-name="VPN" d="M223.2,305.729l-2.33,14.164h-1.726l-2.3-14.164h1.641l1.41,9.857A14.126,14.126,0,0,1,220.03,317h.028q.033-.662.146-1.452l1.4-9.818H223.2Zm2.334,9.284v4.879H224.01V305.729H226.4q2.556,0,2.556,4.514a7.078,7.078,0,0,1-.733,3.452,2.2,2.2,0,0,1-1.96,1.319Zm0-6.835v4.415h.6q1.217,0,1.217-2.232,0-2.183-1.217-2.183Zm10.493,11.714h-1.537l-2.787-8.9q-.245-.78-.34-1.175h-.019q.038.751.038,2.291v7.783h-1.438V305.729h1.641l2.683,8.623q.179.566.34,1.156h.019q-.038-.494-.038-1.946v-7.832h1.438Z" transform="translate(-216.842 -305.729)" fill="#f5f5f5"/>
</svg>
